<?xml version="1.0" encoding="utf-8"?>
<?xml-stylesheet type="text/xsl" href="rss1.xsl"?>
<rss version="2.0" xmlns:atom="http://www.w3.org/2005/Atom" xmlns:content="http://purl.org/rss/1.0/modules/content/" xmlns:dc="http://purl.org/dc/elements/1.1/" xmlns:media="http://search.yahoo.com/mrss/">
<channel>
 <title>Getty</title>
 <link>http://www.gettyimg.com/</link>
 <atom:link href="http://www.gettyimg.com/" rel="self" type="application/rss+xml" />

 
                <item>
                <title><![CDATA[【Music Videos】Fireboy DML &amp; Ed Sheeran - Peru [AM 4K HEVC 10-bit | PCM | DD+ Dolby Atmos]]]></title>
                <link><![CDATA[https://sharemania.us/threads/fireboy-dml-ed-sheeran-peru-am-4k-hevc-10-bit-pcm-dd-dolby-atmos.237922/]]></link>
                <description><![CDATA[<article>
<blockquote class="messageText SelectQuoteContainer ugc baseHtml">
<b><img src="https://images2.imgbox.com/92/2b/t8D1tPYL_o.jpg" class="bbCodeImage LbImage" alt="[​IMG]" data-url="https://images2.imgbox.com/92/2b/t8D1tPYL_o.jpg" style=""> <br>
<br>
Genre: <span style="color: #0059b3">Electronic, Pop</span><br>
Style: <span style="color: #0059b3">African, Electro</span><br>
Year: <span style="color: #0059b3">2022</span> <br>
Video Source: <span style="color: #0059b3">Apple Music, merci SonMaxime</span><br>
Audio Source: <span style="color: #0059b3">Qobuz &amp; Tidal, thanks moi &amp; </span><span style="color: rgb(0, 89, 179)">Richard Bowen</span></b><br>
<br>
"<b>Peru</b>" is a song by Nigerian singer Fireboy DML. It was released on 20 July 2021, through YBNL Nation, and distributed by Empire. "Peru" was written by Fireboy DML, Ivory Scott, &amp; Kolten Perine and produced by Shizzi &amp; Perine. The song was nominated at the 7th annual African Entertainment Awards USA for Song of the Year.<br>
<br>
The chorus is a play on Fireboy's fellow Nigerian singer Peruzzi and the country of Peru. "Para" means losing control in the Nigerian pidgin language. Here, Fireboy nods to Peruzzi's chorus on "4U," his song with DJ Ecool and Davido, where he sings: "Baby I'm loosing con control."<br>
The song took Fireboy less than an hour to put together. By letting go of his perfectionist inclinations, he could enjoy the music-making process, and his relaxed frame of mind led to the carefree lyrics. "The song is really about a young man in a foreign land, enjoying himself," the Nigerian singer told Rolling Stone, "and just coming out of his shell and having fun and living life."<br>
<br>
After the song garnered popularity and reached number one on the UK Afrobeats Singles Chart, Fireboy reached out to Sheeran for a remix through the founder of SB.TV, Jamal Edwards. The remix was released on 23 December 2021.<br>
<br>
The music video featuring Ed Sheeran, was released on 24 December 2021. Directed by Gabriella Kingsley, and shot in London, United Kingdom. The music video reached 1.9 million views, less than 24 hours after its release.<br>
<br>
<b>Release Info</b><br>
The video track is downloaded from Apple Music by SonMaxime (2160p HEVC 10-bit).<br>
The PCM track is lossless (Qobuz CD quality, 16-bit 44.1 kHz), synced with Audition.<br>
The Atmos track is lossy and is synced by muxing (modified delay, no quality loss).<br>
The timed lyrics are synced and edited. Enable the subtitles to see the lyrics.<br>
<br>
<div class="ToggleTriggerAnchor bbCodeSpoilerContainer">
<button type="button" class="button bbCodeSpoilerButton ToggleTrigger Tooltip JsOnly" data-target="> .SpoilerTarget"><span>Spoiler: <span class="SpoilerTitle">Media Info</span></span></button>
<div class="SpoilerTarget bbCodeSpoilerText">
<div class="bbCodeBlock bbCodeCode">
<div class="type">Code:</div>
<pre>General
Unique ID                      : 50034083845705529635583748053426806429 (0x25A436CACA743F231855181D29809E9D)
Complete name                  : Fireboy DML &amp; Ed Sheeran - Peru.mkv
Format                         : Matroska
Format version                 : Version 4 / Version 2
File size                      : 355 MiB
Duration                       : 3 min 9 s
Overall bit rate               : 15.7 Mb/s
Frame rate                     : 23.976 FPS
Encoded date                   : 2024-02-11 22:35:03 UTC
Writing application            : mkvmerge v82.0 ('I'm The President') 64-bit
Writing library                : libebml v1.4.5 + libmatroska v1.7.1
Cover                          : Yes
Attachments                    : cover.jpg

Video
ID                             : 1
Format                         : HEVC
Format/Info                    : High Efficiency Video Coding
Format profile                 : Main 10@L5@High
Codec ID                       : V_MPEGH/ISO/HEVC
Duration                       : 3 min 9 s
Bit rate                       : 11.9 Mb/s
Width                          : 3 840 pixels
Height                         : 1 600 pixels
Display aspect ratio           : 2.40:1
Frame rate mode                : Constant
Frame rate                     : 23.976 (23976/1000) FPS
Color space                    : YUV
Chroma subsampling             : 4:2:0
Bit depth                      : 10 bits
Bits/(Pixel*Frame)             : 0.081
Stream size                    : 268 MiB (75%)
Default                        : Yes
Forced                         : No
Color range                    : Limited
Color primaries                : BT.709
Transfer characteristics       : BT.709
Matrix coefficients            : BT.709

Audio #1
ID                             : 2
Format                         : PCM
Format settings                : Little / Signed
Codec ID                       : A_PCM/INT/LIT
Duration                       : 3 min 9 s
Bit rate mode                  : Constant
Bit rate                       : 1 411.2 kb/s
Channel(s)                     : 2 channels
Sampling rate                  : 44.1 kHz
Frame rate                     : 25.005 FPS (1764 SPF)
Bit depth                      : 16 bits
Stream size                    : 31.8 MiB (9%)
Title                          : Explicit - Lossless
Language                       : English
Default                        : Yes
Forced                         : No

Audio #2
ID                             : 3
Format                         : PCM
Format settings                : Little / Signed
Codec ID                       : A_PCM/INT/LIT
Duration                       : 3 min 9 s
Bit rate mode                  : Constant
Bit rate                       : 1 411.2 kb/s
Channel(s)                     : 2 channels
Sampling rate                  : 44.1 kHz
Frame rate                     : 25.005 FPS (1764 SPF)
Bit depth                      : 16 bits
Stream size                    : 31.8 MiB (9%)
Title                          : Clean - Lossless
Language                       : English
Default                        : No
Forced                         : No

Audio #3
ID                             : 4
Format                         : E-AC-3 JOC
Format/Info                    : Enhanced AC-3 with Joint Object Coding
Commercial name                : Dolby Digital Plus with Dolby Atmos
Codec ID                       : A_EAC3
Duration                       : 3 min 7 s
Bit rate mode                  : Constant
Bit rate                       : 768 kb/s
Channel(s)                     : 6 channels
Channel layout                 : L R C LFE Ls Rs
Sampling rate                  : 48.0 kHz
Frame rate                     : 31.250 FPS (1536 SPF)
Compression mode               : Lossy
Delay relative to video        : 1 s 758 ms
Stream size                    : 17.1 MiB (5%)
Title                          : Explicit - Dolby Atmos
Language                       : English
Service kind                   : Complete Main
Default                        : No
Forced                         : No
Complexity index               : 16
Number of dynamic objects      : 15
Bed channel count              : 1 channel
Bed channel configuration      : LFE

Audio #4
ID                             : 5
Format                         : AAC LC
Format/Info                    : Advanced Audio Codec Low Complexity
Codec ID                       : A_AAC-2
Duration                       : 3 min 9 s
Bit rate                       : 265 kb/s
Channel(s)                     : 2 channels
Channel layout                 : L R
Sampling rate                  : 48.0 kHz
Frame rate                     : 46.875 FPS (1024 SPF)
Compression mode               : Lossy
Stream size                    : 5.89 MiB (2%)
Title                          : Original Track
Language                       : English
Default                        : No
Forced                         : No

Text
ID                             : 6
Format                         : UTF-8
Codec ID                       : S_TEXT/UTF8
Codec ID/Info                  : UTF-8 Plain Text
Duration                       : 2 min 22 s
Bit rate                       : 89 b/s
Frame rate                     : 0.421 FPS
Count of elements              : 60
Stream size                    : 1.56 KiB (0%)
Title                          : Lyrics
Language                       : English
Default                        : No
Forced                         : No
</pre>
</div></div>
</div><br>
<b>Note to the peeps @ RuTracker: Give credit if you post the work of someone else!</b><br>
- Hurby4 aka ADHDerby<br>
<br>
<div class="bbCodeBlock bbCodeVfcHH HiddenContent">
<div class="attribution type">Hidden Content:</div>
<blockquote>You must reply before you can see the hidden data contained here.</blockquote>
</div>
<div class="messageTextEndMarker">&nbsp;</div>
</blockquote>
</article>]]></description>
                <author><![CDATA[ADHDerby]]></author>
                </item>

                </channel></rss>